<svg width="173" height="120" viewBox="0 0 173 120" fill="none" xmlns="http://www.w3.org/2000/svg">
<path d="M90.0482 48.5283C90.0482 50.1859 88.6697 51.5422 86.985 51.5422C85.3002 51.5422 83.9218 50.1859 83.9218 48.5283C83.9218 46.8706 85.2236 45.5143 86.985 45.5143C88.7463 45.552 90.0482 46.9083 90.0482 48.5283ZM77.489 54.5561C77.489 54.8198 77.489 55.3096 77.489 55.3096C77.489 55.3096 76.034 53.4636 72.9325 53.4636C67.8399 53.4636 63.8195 57.3063 63.8195 62.5807C63.8195 67.855 67.7633 71.6978 72.9325 71.6978C76.0723 71.6978 77.489 69.8141 77.489 69.8141V70.6052C77.489 70.982 77.757 71.2457 78.14 71.2457H81.9307V53.9156C81.9307 53.9156 78.4463 53.9156 78.14 53.9156C77.757 53.9156 77.489 54.2547 77.489 54.5561ZM77.489 65.6699C76.7998 66.6871 75.3831 67.5536 73.6983 67.5536C70.7117 67.5536 68.4143 65.7076 68.4143 62.5807C68.4143 59.4537 70.7117 57.6077 73.6983 57.6077C75.3448 57.6077 76.8381 58.5119 77.489 59.4914V65.6699ZM84.7641 53.9156H89.2824V71.2457H84.7641V53.9156ZM151.963 53.4636C148.862 53.4636 147.407 55.3096 147.407 55.3096V45.5897H142.889V71.2834C142.889 71.2834 146.373 71.2834 146.679 71.2834C147.062 71.2834 147.33 70.9443 147.33 70.6429V69.8518C147.33 69.8518 148.785 71.7355 151.887 71.7355C156.979 71.7355 161 67.855 161 62.6183C161.038 57.344 157.018 53.4636 151.963 53.4636ZM151.236 67.516C149.513 67.516 148.134 66.6495 147.445 65.6323V59.4537C148.134 58.5496 149.666 57.57 151.236 57.57C154.222 57.57 156.52 59.4161 156.52 62.543C156.52 65.6699 154.222 67.516 151.236 67.516ZM140.591 60.9607V71.2834H136.073V61.4881C136.073 58.6249 135.154 57.457 132.588 57.457C131.21 57.457 129.832 58.1351 128.951 59.1523V71.2457H124.433V53.9156H127.994C128.377 53.9156 128.645 54.2547 128.645 54.5561V55.3096C129.946 53.9533 131.708 53.4636 133.431 53.4636C135.384 53.4636 137.03 54.0287 138.37 55.1212C139.978 56.4021 140.591 58.0598 140.591 60.9607ZM113.52 53.4636C110.419 53.4636 108.963 55.3096 108.963 55.3096V45.5897H104.445V71.2834C104.445 71.2834 107.93 71.2834 108.236 71.2834C108.619 71.2834 108.887 70.9443 108.887 70.6429V69.8518C108.887 69.8518 110.342 71.7355 113.443 71.7355C118.536 71.7355 122.556 67.855 122.556 62.6183C122.633 57.344 118.651 53.4636 113.52 53.4636ZM112.792 67.516C111.069 67.516 109.691 66.6495 109.002 65.6323V59.4537C109.691 58.5496 111.223 57.57 112.792 57.57C115.779 57.57 118.077 59.4161 118.077 62.543C118.077 65.6699 115.779 67.516 112.792 67.516ZM100.578 53.4636C101.956 53.4636 102.646 53.6896 102.646 53.6896V57.7961C102.646 57.7961 98.8932 56.5528 96.5575 59.19V71.321H92.0393V53.9156C92.0393 53.9156 95.5237 53.9156 95.83 53.9156C96.2129 53.9156 96.4809 54.2547 96.4809 54.5561V55.3096C97.3616 54.3301 99.1995 53.4636 100.578 53.4636ZM53.864 69.7011C53.6343 69.136 53.4045 68.5332 53.1748 68.0434C52.7919 67.2146 52.409 66.4234 52.1027 65.7076L52.0644 65.6699C48.848 58.7379 45.3636 51.7305 41.6878 44.8362L41.5346 44.5725C41.1517 43.8943 40.7688 43.1409 40.4242 42.3874C39.9647 41.5586 39.5052 40.6921 38.7394 39.8632C37.2461 38.0172 35.1019 37 32.8045 37C30.4688 37 28.3628 38.0172 26.7929 39.7502C26.1037 40.579 25.5676 41.4455 25.1082 42.2744C24.7253 43.0278 24.3424 43.7437 23.9977 44.4595L23.8446 44.7232C20.2453 51.6552 16.7226 58.6626 13.468 65.5569L13.4297 65.6323C13.0851 66.3857 12.7405 67.1392 12.3576 67.9681C12.1278 68.4578 11.8981 69.0229 11.6683 69.6257C11.0557 71.321 10.8642 72.941 11.094 74.5987C11.5918 78.0647 13.9657 80.9656 17.1821 82.2465C18.4074 82.7363 19.671 83 20.9728 83C21.3557 83 21.8152 82.9623 22.1981 82.9246C23.7297 82.7363 25.3379 82.2465 26.8695 81.3423C28.784 80.2875 30.6219 78.7428 32.6896 76.5577C34.7573 78.7805 36.6335 80.2875 38.5097 81.3423C40.0413 82.2088 41.6495 82.7363 43.1811 82.9246C43.564 82.9623 44.0235 83 44.4064 83C45.7082 83 47.0484 82.774 48.1971 82.2465C51.49 80.9656 53.7874 77.9894 54.2852 74.5987C54.6681 73.0164 54.4767 71.3964 53.864 69.7011ZM32.7279 72.0745C30.2007 68.9476 28.5543 65.9713 27.9799 63.4848C27.7502 62.43 27.7119 61.4881 27.8268 60.6593C27.9033 59.9058 28.2097 59.2654 28.5926 58.7379C29.4732 57.4947 30.9665 56.7035 32.7279 56.7035C34.4892 56.7035 36.0208 57.457 36.8632 58.7379C37.2461 59.303 37.5142 59.9435 37.629 60.6593C37.7822 61.4881 37.7056 62.4676 37.4759 63.4848C36.9015 65.9713 35.255 68.9099 32.7279 72.0745ZM51.4135 74.2596C51.0688 76.6708 49.4607 78.7428 47.1633 79.647C46.0528 80.0991 44.8276 80.2498 43.6023 80.0991C42.4153 79.9484 41.2666 79.6093 40.0413 78.8935C38.3565 77.9893 36.6718 76.5577 34.6807 74.4103C37.7822 70.6806 39.6584 67.2523 40.3476 64.2007C40.6922 62.769 40.7305 61.4881 40.5774 60.2826C40.3859 59.1147 39.9647 58.0598 39.3138 57.1556C37.8588 55.0835 35.4082 53.878 32.6896 53.878C29.971 53.878 27.5204 55.1212 26.0654 57.1556C25.4145 58.0598 24.9933 59.1523 24.8018 60.2826C24.6104 61.4881 24.6487 62.8067 25.0316 64.2007C25.7208 67.2523 27.6736 70.7183 30.6985 74.448C28.784 76.5577 27.061 77.9894 25.3379 78.9312C24.1126 79.6093 22.9639 79.9861 21.7769 80.1368C20.5133 80.2875 19.2881 80.0991 18.2159 79.6847C15.9185 78.7805 14.2721 76.6708 13.9657 74.2973C13.8126 73.1294 13.9275 71.9992 14.3869 70.7183C14.5401 70.2662 14.7698 69.8141 14.9996 69.249C15.3442 68.4955 15.6888 67.742 16.0717 66.9509L16.11 66.8755C19.3264 60.0188 22.8108 52.9738 26.41 46.1548L26.5632 45.8911C26.9461 45.2129 27.329 44.4595 27.6736 43.7813C28.0565 43.0278 28.4777 42.3497 28.9755 41.7469C29.971 40.6544 31.2729 40.0516 32.7279 40.0516C34.1829 40.0516 35.4848 40.6544 36.4803 41.7469C36.9781 42.3497 37.3993 43.0278 37.7822 43.7813C38.1651 44.4595 38.548 45.2129 38.8926 45.8911L39.0458 46.1548C42.6067 53.0115 46.0911 60.0565 49.3075 66.9132V66.9509C49.6904 67.7043 49.9967 68.5332 50.3796 69.249C50.6094 69.8141 50.8391 70.2662 50.9923 70.7183C51.4517 71.8862 51.6049 73.0541 51.4135 74.2596Z" fill="#C6C6C6"/>
</svg>
