<svg width="173" height="120" viewBox="0 0 173 120" fill="none" xmlns="http://www.w3.org/2000/svg">
<path d="M84.7755 16.291H87.4951C100.723 17.0365 110.155 22.0568 117.148 29.0924C124.14 36.1281 129.309 45.4075 130 58.6845V61.3149C129.328 74.8042 124.068 83.7071 117.148 90.9509C109.878 97.8315 100.941 103.045 87.4512 103.708H84.7755C71.5489 102.961 62.1154 97.9428 55.1229 90.9068C48.1304 83.8711 42.9613 74.5919 42.2706 61.3149V58.6845C42.305 58.6749 42.3219 58.6479 42.3145 58.5968C42.9759 45.3705 48.1731 35.9946 55.1231 29.0486C62.105 22.0702 71.6346 17.0141 84.7755 16.291ZM76.178 22.5602C73.5717 23.2577 71.2344 24.1435 69.1159 25.1905C62.6675 28.3773 57.3498 32.9367 53.6316 38.7809C50.0024 44.4854 46.8602 51.8237 47.3152 61.4463C47.6021 67.5128 48.9872 72.6158 51.1751 76.9657C55.4959 85.5546 62.074 91.8831 71.1776 95.7295C75.6794 97.6315 81.2576 98.9657 87.5392 98.6666C93.5644 98.3799 98.7855 97.0262 103.111 94.8526C111.589 90.5923 118.27 84.019 121.973 74.9492C123.846 70.3612 125.262 65.0611 124.956 58.6405C124.377 46.4778 119.426 38.2309 112.893 31.9419C109.661 28.8301 105.769 26.1831 101.182 24.2699C96.7311 22.4137 90.9373 21.0373 84.7322 21.3326C81.6816 21.4778 78.8039 21.8574 76.178 22.5602Z" fill="#C6C6C6"/>
<path d="M82.0999 48.645C83.4897 49.5648 84.9113 50.4531 86.2233 51.4508C83.2593 53.3108 80.3537 55.2293 77.4066 57.1061C77.8541 57.4481 78.3628 57.7286 78.8101 58.0706C81.7818 56.189 84.7545 54.3085 87.7148 52.4152C89.0425 53.2365 90.3496 54.0783 91.5751 55.0019C88.6087 56.8744 85.7417 58.846 82.802 60.7448C83.2376 61.0988 83.7715 61.3542 84.2493 61.6655C87.2877 59.8068 90.2505 57.8725 93.2415 55.9665V49.741H99.8213V62.1479C101.678 62.25 103.725 62.1625 105.656 62.1914V68.0224H93.2415V62.1037C89.5942 64.3183 85.8566 66.8228 82.1877 69.162C78.367 66.6825 74.6847 64.0639 70.8706 61.5778C69.7657 65.0781 67.1414 67.7112 62.7993 68.0224C60.0912 68.2159 57.014 67.8778 53.8948 68.0224V49.741C57.7944 49.9992 62.0764 49.2199 65.168 50.1794C67.9016 51.0279 69.8396 53.2078 70.7388 55.9224C74.5557 53.5265 78.3114 51.0697 82.0999 48.645ZM60.1673 55.6156V62.1916C61.7346 62.1993 62.9268 62.2903 63.8518 61.578C65.2281 60.5185 65.5054 57.8919 64.2904 56.4924C63.4796 55.5586 62.1106 55.3625 60.211 55.4841C60.1603 55.4915 60.1635 55.5535 60.1673 55.6156ZM107.366 49.741H113.946V62.1916H119.736V68.0226H107.322V49.8726C107.318 49.8104 107.315 49.7484 107.366 49.741Z" fill="#C6C6C6"/>
</svg>
