<svg width="1440" height="836" viewBox="0 0 1440 836" fill="none" xmlns="http://www.w3.org/2000/svg">
<g opacity="0.6">
<path d="M226.375 177.83C62.1634 177.83 -72.4281 339.238 -42.9158 500.776V1229.68H1505V0.664795C1447.69 145.653 1357.19 207.189 1201.29 207.189C1041.8 207.189 987.678 26.9864 834.81 26.9864C622.957 26.9864 697.128 480.529 537.173 480.529C367.746 480.529 386.33 177.83 226.375 177.83Z" fill="url(#paint0_linear)" fill-opacity="0.5"/>
<path d="M-42.9158 508.875C-72.4281 347.338 62.1634 185.929 226.375 185.929C386.33 185.929 367.746 488.628 537.173 488.628C697.128 488.628 622.957 35.0856 834.81 35.0856C987.678 35.0856 1041.8 215.288 1201.29 215.288C1357.19 215.288 1447.69 153.752 1505 8.76392" stroke="white" stroke-opacity="0.15" stroke-width="10.1237"/>
</g>
<defs>
<linearGradient id="paint0_linear" x1="729" y1="0.664795" x2="728.476" y2="1161.85" gradientUnits="userSpaceOnUse">
<stop stop-color="white" stop-opacity="0.2"/>
<stop offset="1" stop-color="white" stop-opacity="0"/>
</linearGradient>
</defs>
</svg>
